<svg width="20" height="20" fill="none" xmlns="http://www.w3.org/2000/svg"><path d="M17.335 4.883a.568.568 0 00-.804-.002l-4.314 4.297-1.247-1.247a.568.568 0 00-.803 0L5.11 12.988a.568.568 0 10.803.803l4.655-4.654 1.246 1.245c.222.222.58.222.803.001l4.716-4.697a.568.568 0 00.002-.803z" fill="#999"/><path d="M16.913 15.7H3.636V3.768a.568.568 0 10-1.136 0v12.5c0 .314.254.568.568.568h13.845a.568.568 0 000-1.136zm.018-11.003H12.67a.568.568 0 100 1.136h3.693v3.694a.568.568 0 001.136 0V5.265a.568.568 0 00-.568-.568z" fill="#999"/></svg>