<svg width="20" height="20" viewBox="0 0 20 20" fill="none" xmlns="http://www.w3.org/2000/svg">
<path d="M10 13.5C11.3807 13.5 12.5 12.3807 12.5 11C12.5 9.61929 11.3807 8.5 10 8.5C8.61929 8.5 7.5 9.61929 7.5 11C7.5 12.3807 8.61929 13.5 10 13.5Z" fill="#BDBDBD"/>
<path d="M16.6685 4.33366H14.0268L12.9935 3.20866C12.8382 3.03815 12.649 2.90191 12.4381 2.80865C12.2271 2.71538 11.9991 2.66713 11.7685 2.66699H8.23512C7.76846 2.66699 7.31846 2.86699 7.00179 3.20866L5.97679 4.33366H3.33512C2.41846 4.33366 1.66846 5.08366 1.66846 6.00033V16.0003C1.66846 16.917 2.41846 17.667 3.33512 17.667H16.6685C17.5851 17.667 18.3351 16.917 18.3351 16.0003V6.00033C18.3351 5.08366 17.5851 4.33366 16.6685 4.33366ZM10.0018 15.167C7.70179 15.167 5.83512 13.3003 5.83512 11.0003C5.83512 8.70033 7.70179 6.83366 10.0018 6.83366C12.3018 6.83366 14.1685 8.70033 14.1685 11.0003C14.1685 13.3003 12.3018 15.167 10.0018 15.167Z" fill="#BDBDBD"/>
</svg>
