<svg width="16" height="14" viewBox="0 0 16 14" fill="none" xmlns="http://www.w3.org/2000/svg">
<path d="M14.8565 4.9298L10.4616 4.29107L8.49698 0.308118C8.44332 0.199068 8.35504 0.110788 8.24599 0.0571283C7.9725 -0.0778871 7.64015 0.0346257 7.5034 0.308118L5.53876 4.29107L1.14383 4.9298C1.02267 4.94711 0.911884 5.00423 0.827067 5.09078C0.724527 5.19617 0.668023 5.33796 0.669971 5.48499C0.671918 5.63202 0.732157 5.77227 0.837452 5.87491L4.01724 8.97507L3.266 13.3527C3.24838 13.4545 3.25965 13.5592 3.29853 13.655C3.3374 13.7508 3.40233 13.8337 3.48595 13.8944C3.56957 13.9552 3.66853 13.9912 3.77161 13.9986C3.8747 14.0059 3.97778 13.9843 4.06917 13.936L8.00019 11.8692L11.9312 13.936C12.0385 13.9931 12.1632 14.0122 12.2826 13.9914C12.5838 13.9395 12.7863 13.6539 12.7344 13.3527L11.9831 8.97507L15.1629 5.87491C15.2495 5.79009 15.3066 5.67931 15.3239 5.55814C15.3706 5.25522 15.1595 4.9748 14.8565 4.9298Z" fill="#BDBDBD"/>
</svg>
